<svg width="17" height="21" xmlns="http://www.w3.org/2000/svg" xmlns:xlink="http://www.w3.org/1999/xlink" xmlns:svgjs="http://svgjs.com/svgjs" viewBox="611 370 17 21"><svg width="14" height="15" xmlns="http://www.w3.org/2000/svg" xmlns:xlink="http://www.w3.org/1999/xlink" xmlns:svgjs="http://svgjs.com/svgjs" viewBox="0.085 0 13.831 15" x="613" y="376"><svg xmlns="http://www.w3.org/2000/svg" xmlns:xlink="http://www.w3.org/1999/xlink" width="14" height="15" viewBox="0.198 0.478 13.37 14.5"><path paint-order="stroke fill markers" fill-rule="evenodd" d="M1.154 12.913a2.245 2.245 0 0 0 2.218 2.066h7.022c1.174 0 2.13-.892 2.217-2.066L13.568.478H.198l.956 12.435zm7.979-9.087c0-.304.24-.565.565-.565.305 0 .565.24.565.565v7.805c0 .304-.239.565-.565.565a.561.561 0 0 1-.565-.565V3.826zm-2.804 0c0-.304.239-.565.565-.565.304 0 .565.24.565.565v7.805c0 .304-.24.565-.565.565a.561.561 0 0 1-.565-.565V3.826zm-2.783 0c0-.304.239-.565.565-.565.304 0 .565.24.565.565v7.805c0 .304-.239.565-.565.565a.561.561 0 0 1-.565-.565V3.826z"/></svg></svg><svg width="17" height="6" xmlns="http://www.w3.org/2000/svg" xmlns:xlink="http://www.w3.org/1999/xlink" xmlns:svgjs="http://svgjs.com/svgjs" viewBox="0 0.338 17 5.324" x="611" y="370"><svg xmlns="http://www.w3.org/2000/svg" width="17" height="6" viewBox="0.807 0.304 16.174 5.065"><path paint-order="stroke fill markers" fill-rule="evenodd" d="M15.177 3.13H12.11v-.674A2.157 2.157 0 0 0 9.96.304h-2.13a2.157 2.157 0 0 0-2.153 2.152v.674H2.611A1.8 1.8 0 0 0 .807 4.935c0 .239.195.434.434.434h15.305c.24 0 .435-.195.435-.434a1.8 1.8 0 0 0-1.804-1.805zM7.35 2.478c0-.26.218-.478.478-.478H9.96c.26 0 .478.217.478.478v.674H7.35v-.674z"/></svg></svg></svg>