<svg width="37" height="45" xmlns="http://www.w3.org/2000/svg" xmlns:xlink="http://www.w3.org/1999/xlink" xmlns:svgjs="http://svgjs.com/svgjs" viewBox="0 0.531 37 43.939" fill="#fff"><svg xmlns="http://www.w3.org/2000/svg" width="37" height="45" viewBox="0 1 36.325 43.137"><path paint-order="stroke fill markers" fill-rule="evenodd" d="M33.82 1H2.505A2.51 2.51 0 0 0 0 3.504v38.129a2.512 2.512 0 0 0 2.504 2.504H33.82a2.512 2.512 0 0 0 2.504-2.504V3.503A2.51 2.51 0 0 0 33.82 1zM27.9 32.845a8.701 8.701 0 0 1-2.483 3.045c-1.041.807-2.251 1.403-3.627 1.794a16.034 16.034 0 0 1-4.358.583c-1.918 0-3.697-.292-5.338-.876-1.641-.584-3.168-1.53-4.586-2.836l4.628-5.087a6.754 6.754 0 0 0 2.524 2.063 7.203 7.203 0 0 0 3.148.73c.526 0 1.064-.062 1.604-.187a5.197 5.197 0 0 0 1.46-.563c.43-.25.779-.57 1.043-.958.263-.39.395-.85.395-1.377 0-.89-.34-1.591-1.021-2.107-.681-.514-1.535-.951-2.563-1.313a79.926 79.926 0 0 0-3.337-1.084 14.92 14.92 0 0 1-3.337-1.46 8.04 8.04 0 0 1-2.564-2.417c-.681-1.002-1.021-2.322-1.021-3.963 0-1.584.313-2.974.937-4.171a9.07 9.07 0 0 1 2.502-3.002c1.044-.807 2.247-1.411 3.608-1.813a14.768 14.768 0 0 1 4.212-.604c1.668 0 3.28.236 4.838.709a11.183 11.183 0 0 1 4.21 2.375l-4.461 4.88c-.529-.668-1.244-1.16-2.149-1.48-.903-.32-1.757-.481-2.563-.481-.474 0-.96.057-1.46.168a5.59 5.59 0 0 0-1.418.52c-.444.237-.805.551-1.084.94-.278.389-.415.863-.415 1.417 0 .89.332 1.57.999 2.042.668.475 1.508.878 2.522 1.21 1.014.334 2.106.668 3.274 1 1.169.334 2.258.809 3.275 1.419a7.768 7.768 0 0 1 2.521 2.46c.669 1.029 1.002 2.405 1.002 4.129 0 1.64-.307 3.071-.917 4.295z"/></svg></svg>