<svg width="35" height="35" xmlns="http://www.w3.org/2000/svg" xmlns:xlink="http://www.w3.org/1999/xlink" xmlns:svgjs="http://svgjs.com/svgjs" fill="#fff"><svg xmlns="http://www.w3.org/2000/svg" width="35" height="35" viewBox="0 0 34.753 34.753"><path paint-order="stroke fill markers" fill-rule="evenodd" d="M17.376 34.753a17.263 17.263 0 0 1-12.287-5.09A17.263 17.263 0 0 1 0 17.376C0 12.735 1.807 8.371 5.09 5.09A17.262 17.262 0 0 1 17.375 0c4.642 0 9.005 1.807 12.287 5.09a17.262 17.262 0 0 1 5.09 12.286c0 4.642-1.808 9.005-5.09 12.287a17.263 17.263 0 0 1-12.287 5.09zm-3.36-16.774c-.034.011-3.47 1.12-4.785 2.434-.44.44-.808 2.361-.812 2.38 0 .858.936 1.666 2.635 2.275 1.7.609 3.956.944 6.353.944 4.956 0 8.987-1.444 8.987-3.219 0-.015-.368-1.936-.812-2.38-1.315-1.315-4.75-2.423-4.785-2.434-1.01 1.044-2.183 1.595-3.39 1.595-1.209 0-2.381-.551-3.39-1.595zm3.39-9.63c-2.414 0-4.378 2.06-4.378 4.595 0 2.546 1.953 5.621 4.378 5.621s4.378-3.075 4.378-5.621c0-2.534-1.964-4.596-4.378-4.596z"/></svg></svg>