<svg width="19" height="18" xmlns="http://www.w3.org/2000/svg" xmlns:xlink="http://www.w3.org/1999/xlink" xmlns:svgjs="http://svgjs.com/svgjs" viewBox="0.5 0 18 18"><svg xmlns="http://www.w3.org/2000/svg" width="19" height="18" viewBox="1 0.003 17.5 17.5"><path paint-order="stroke fill markers" fill-rule="evenodd" d="M13.5 11.003h-.8l-.3-.3c1-1.1 1.6-2.6 1.6-4.2 0-3.6-2.9-6.5-6.5-6.5S1 2.903 1 6.503s2.9 6.5 6.5 6.5c1.6 0 3.1-.6 4.2-1.6l.3.3v.8l5 5 1.5-1.5-5-5zm-6 0c-2.5 0-4.5-2-4.5-4.5s2-4.5 4.5-4.5 4.5 2 4.5 4.5-2 4.5-4.5 4.5z"/></svg></svg>